<?xml version="1.0" encoding="UTF-8"?>
<level>
  <owner>Fistachka</owner>
  <repo>t-octaves</repo>
  <version>v1.0.14</version>
  <next number="1" owner="stolbitsa" repo="tonic-harmonic"/>
  <readme>
    <ru>54aa0505992cc59f63fa259cc763c29d83872754d5e68ba49cdb7ac064f9d8d9</ru>
    <en>48f5c2e95e69d77fc7f61a37d503ea4cf3dae0f4f3449a33af72e51d5ad4e5bb</en>
  </readme>
  <license>b1b99f5538d1fd3702219bff50c665196dfa42f6ee755c37fe41a6178d6bc6e5</license>
  <exercise number="1">
    <scale>minor</scale>
    <bpm>126</bpm>
    <lowestNote>1</lowestNote>
    <tonalities>1,2,3,4,5,6,7,8,9,10,11,12</tonalities>
    <video name="0-02-05-593408525124cda5a799d8d536c7644a6db1364d34024e609f4443f41e07ef03_8eea464f268bac3c.mp4" size="528780" type="video/mp4">d52312e18d9545a3db1b766a81f8e6ec9e22d6291b9608a40c695a9853d77526</video>
    <notes>
      <note number="1" values="1" ticks="96" durationTicks="94" ppq="192" velocity="0.704"/>
      <note number="2" values="18" ticks="195" durationTicks="87" ppq="192" velocity="0.689"/>
      <note number="3" values="1" ticks="288" durationTicks="98" ppq="192" velocity="0.754"/>
      <note number="4" values="1" ticks="388" durationTicks="95" ppq="192" velocity="0.714"/>
    </notes>
  </exercise>
  <exercise number="2">
    <scale>minor</scale>
    <bpm>126</bpm>
    <lowestNote>1</lowestNote>
    <tonalities>1</tonalities>
    <video name="nh2.mp4" size="23515028" type="video/mp4">6ea3c45ea87e9b0ba61038f630f8a0aed75ebca3fadcf0a13d50e95e708dec99</video>
    <notes>
      <note number="1" values="1" ticks="337" durationTicks="94" ppq="192" velocity="0.296"/>
      <note number="2" values="18" ticks="433" durationTicks="87" ppq="192" velocity="0.274"/>
      <note number="3" values="18" ticks="530" durationTicks="94" ppq="192" velocity="0.269"/>
      <note number="4" values="1" ticks="625" durationTicks="97" ppq="192" velocity="0.326"/>
      <note number="5" values="18" ticks="724" durationTicks="96" ppq="192" velocity="0.316"/>
      <note number="6" values="1" ticks="821" durationTicks="94" ppq="192" velocity="0.294"/>
      <note number="7" values="18" ticks="916" durationTicks="96" ppq="192" velocity="0.294"/>
    </notes>
  </exercise>
  <exercise number="3">
    <scale>minor</scale>
    <bpm>126</bpm>
    <lowestNote>1</lowestNote>
    <tonalities>1,2,3,4,5,6,7,8,9,10,11,12</tonalities>
    <video name="7.mp4" size="16718102" type="video/mp4">310d5249a35de829d07343b079562071ec27041f8acf7c3da7568d0c932d96b6</video>
    <notes>
      <note number="1" values="1" ticks="96" durationTicks="94" ppq="192" velocity="0.704"/>
      <note number="2" values="18" ticks="195" durationTicks="87" ppq="192" velocity="0.689"/>
      <note number="3" values="1" ticks="288" durationTicks="95" ppq="192" velocity="0.754"/>
      <note number="4" values="1" ticks="384" durationTicks="97" ppq="192" velocity="0.714"/>
    </notes>
  </exercise>
  <exercise number="4">
    <scale>minor</scale>
    <bpm>126</bpm>
    <lowestNote>1</lowestNote>
    <tonalities>1</tonalities>
    <video name="4.mp4" size="19705705" type="video/mp4">60769f8a35bac64aa0550e88d91a6a85caf65de15bf32ebf76eec9a97bc6c5f9</video>
    <notes>
      <note number="1" values="18" ticks="96" durationTicks="94" ppq="192" velocity="0.311"/>
      <note number="2" values="18" ticks="191" durationTicks="87" ppq="192" velocity="0.309"/>
      <note number="3" values="18" ticks="287" durationTicks="96" ppq="192" velocity="0.309"/>
      <note number="4" values="1" ticks="384" durationTicks="95" ppq="192" velocity="0.316"/>
      <note number="5" values="18" ticks="480" durationTicks="98" ppq="192" velocity="0.309"/>
    </notes>
  </exercise>
  <exercise number="5">
    <scale>minor</scale>
    <bpm>126</bpm>
    <lowestNote>1</lowestNote>
    <tonalities>1,2,3,4,5,6,7,8,9,10,11,12</tonalities>
    <video name="pexels-kabbo-talukder-6405813 (1080p).mp4" size="5330645" type="video/mp4">e35a8075144f67257da479364961ed24c4cc3e468b97bfe43b12375b3e72a4d5</video>
    <notes>
      <note number="1" values="1" ticks="96" durationTicks="94" ppq="192" velocity="0.704"/>
      <note number="2" values="18" ticks="195" durationTicks="87" ppq="192" velocity="0.689"/>
      <note number="3" values="18" ticks="288" durationTicks="95" ppq="192" velocity="0.754"/>
      <note number="4" values="18" ticks="384" durationTicks="96" ppq="192" velocity="0.714"/>
      <note number="5" values="18" ticks="481" durationTicks="93" ppq="192" velocity="0.671"/>
      <note number="6" values="1" ticks="576" durationTicks="95" ppq="192" velocity="0.754"/>
      <note number="7" values="1" ticks="672" durationTicks="94" ppq="192" velocity="0.754"/>
      <note number="8" values="18" ticks="767" durationTicks="96" ppq="192" velocity="0.754"/>
    </notes>
  </exercise>
  <exercise number="6">
    <scale>minor</scale>
    <bpm>126</bpm>
    <lowestNote>1</lowestNote>
    <tonalities>1</tonalities>
    <video name="10.mp4" size="41913340" type="video/mp4">f50a88e4d13573a3d744e80df1367e35ea115b2409a362fb16d7b253454e89b8</video>
    <notes>
      <note number="1" values="18" ticks="48" durationTicks="90" ppq="192" velocity="0.319"/>
      <note number="2" values="1" ticks="146" durationTicks="87" ppq="192" velocity="0.299"/>
      <note number="3" values="18" ticks="240" durationTicks="94" ppq="192" velocity="0.316"/>
      <note number="4" values="18" ticks="336" durationTicks="94" ppq="192" velocity="0.299"/>
      <note number="5" values="18" ticks="431" durationTicks="94" ppq="192" velocity="0.316"/>
      <note number="6" values="1" ticks="526" durationTicks="97" ppq="192" velocity="0.299"/>
      <note number="7" values="1" ticks="625" durationTicks="93" ppq="192" velocity="0.299"/>
      <note number="8" values="1" ticks="720" durationTicks="96" ppq="192" velocity="0.299"/>
    </notes>
  </exercise>
  <exercise number="7">
    <scale>minor</scale>
    <bpm>126</bpm>
    <lowestNote>1</lowestNote>
    <tonalities>1,2,3,4,5,6,7,8,9,10,11,12</tonalities>
    <video name="77.mp4" size="16760006" type="video/mp4">ee40c35dc75ebf6bb6a67f9fdb3dfdb6edde8413a24c68a2a313a8adfad3a52f</video>
    <notes>
      <note number="1" values="18" ticks="96" durationTicks="94" ppq="192" velocity="0.704"/>
      <note number="2" values="1" ticks="195" durationTicks="87" ppq="192" velocity="0.689"/>
      <note number="3" values="18" ticks="288" durationTicks="95" ppq="192" velocity="0.754"/>
      <note number="4" values="1" ticks="384" durationTicks="94" ppq="192" velocity="0.714"/>
      <note number="5" values="1" ticks="479" durationTicks="95" ppq="192" velocity="0.671"/>
      <note number="6" values="18" ticks="576" durationTicks="96" ppq="192" velocity="0.754"/>
      <note number="7" values="18" ticks="673" durationTicks="100" ppq="192" velocity="0.754"/>
    </notes>
  </exercise>
  <exercise number="8">
    <scale>minor</scale>
    <bpm>126</bpm>
    <lowestNote>1</lowestNote>
    <tonalities>1</tonalities>
    <video name="8.mp4" size="16502439" type="video/mp4">39197b7b613abfd82ba1babc3fb5f4020592c71e874d3f188d2f6ef8cf02c351</video>
    <notes>
      <note number="1" values="18" ticks="48" durationTicks="94" ppq="192" velocity="0.316"/>
      <note number="2" values="18" ticks="142" durationTicks="87" ppq="192" velocity="0.314"/>
      <note number="3" values="18" ticks="240" durationTicks="95" ppq="192" velocity="0.306"/>
      <note number="4" values="1" ticks="336" durationTicks="96" ppq="192" velocity="0.306"/>
    </notes>
  </exercise>
  <exercise number="9">
    <scale>minor</scale>
    <bpm>126</bpm>
    <lowestNote>1</lowestNote>
    <tonalities>1</tonalities>
    <video name="9.mp4" size="13020193" type="video/mp4">54ce71021280a1bf7d9138f22bee10058a64eb1e5cb30c8b0c030b71279b6bc7</video>
    <notes>
      <note number="1" values="18" ticks="48" durationTicks="94" ppq="192" velocity="0.699"/>
      <note number="2" values="1" ticks="142" durationTicks="87" ppq="192" velocity="0.669"/>
      <note number="3" values="18" ticks="240" durationTicks="97" ppq="192" velocity="0.757"/>
      <note number="4" values="18" ticks="338" durationTicks="96" ppq="192" velocity="0.842"/>
    </notes>
  </exercise>
  <exercise number="10">
    <scale>minor</scale>
    <bpm>126</bpm>
    <lowestNote>1</lowestNote>
    <tonalities>1</tonalities>
    <video name="11.mp4" size="27693763" type="video/mp4">22bad0515ab3796f48a3e7edac1392f97eb690adf999e910f8a3b3e934463a55</video>
    <notes>
      <note number="1" values="1" ticks="48" durationTicks="94" ppq="192" velocity="0.699"/>
      <note number="2" values="18" ticks="142" durationTicks="87" ppq="192" velocity="0.669"/>
      <note number="3" values="1" ticks="240" durationTicks="96" ppq="192" velocity="0.757"/>
      <note number="4" values="1" ticks="338" durationTicks="96" ppq="192" velocity="0.842"/>
      <note number="5" values="1" ticks="436" durationTicks="96" ppq="192" velocity="0.779"/>
      <note number="6" values="18" ticks="532" durationTicks="97" ppq="192" velocity="0.779"/>
    </notes>
  </exercise>
</level>
